<svg width="444" height="360" viewBox="0 0 444 360" fill="none" xmlns="http://www.w3.org/2000/svg">
<path d="M182.969 2.3537C92.9124 15.3499 22.9013 70.5537 3.00337 144.358C-0.976211 158.665 -0.976211 200.038 2.85598 214.704C12.5838 251.904 31.3026 280.042 64.171 306.511C98.366 334.054 134.772 349.792 181.495 357.304C200.066 360.285 244.284 360.404 261.824 357.423C298.524 351.223 327.266 340.969 354.681 324.515C399.635 297.331 428.229 260.965 440.463 215.419C445.179 198.011 445.179 162.481 440.463 144.835C430.44 107.515 411.574 79.3768 378.411 52.4306C352.027 31.2076 326.381 18.2114 292.039 8.91138C259.76 0.20755 216.279 -2.41553 182.969 2.3537ZM241.926 11.4152C279.511 13.2037 320.78 26.796 353.059 47.7806C391.234 72.6999 416.438 106.084 427.197 145.908C429.998 156.042 430.44 161.765 430.44 180.723C430.44 200.873 429.998 204.808 426.608 216.611C421.891 232.946 412.9 251.546 403.909 264.185C376.789 301.742 330.95 330.954 280.248 342.877C257.844 348.123 240.452 349.792 213.921 348.958C180.168 348.123 155.554 342.996 127.402 331.311C66.3819 306.035 25.7017 261.085 14.9421 206.954C12.1417 193.004 12.1417 165.819 14.9421 151.75C28.3548 85.0999 94.3864 28.7037 175.599 14.396C189.602 11.8922 217.164 9.746 224.976 10.3422C227.039 10.5806 234.703 11.0575 241.926 11.4152Z" fill="white"/>
<path d="M213.332 29.6576C201.983 34.6653 200.066 45.7537 209.352 53.2653C221.88 63.3999 241.189 56.6037 241.189 42.0576C241.189 31.0884 225.565 24.173 213.332 29.6576ZM229.692 33.5922C231.313 34.3076 233.524 36.6922 234.704 38.9576C240.452 49.9268 223.649 58.7499 213.037 50.2845C207.583 45.873 207.436 40.8653 212.595 35.9768C216.722 32.0422 223.649 30.9691 229.692 33.5922Z" fill="white"/>
<path d="M162.629 46.1113C162.187 46.469 162.334 48.1383 163.218 49.8075C165.282 54.219 164.84 61.6113 162.187 66.619C158.944 72.819 158.944 80.9267 162.187 86.769C164.987 91.896 168.525 94.1613 169.851 91.5383C170.146 90.7036 169.114 87.9613 167.493 85.3383C163.808 79.496 163.808 77.3498 167.493 67.8113C170.883 59.2267 171.03 56.1267 168.819 49.8075C167.493 45.7536 164.987 44.3229 162.629 46.1113Z" fill="white"/>
<path d="M279.068 53.623C279.658 59.823 279.363 63.1614 277.447 66.7384C276.121 69.4807 275.089 74.2499 275.089 77.3499C275.089 83.9076 279.805 93.0884 283.195 93.0884C285.996 93.0884 285.996 92.1345 283.195 86.7691C282.016 84.3845 280.985 80.0922 280.985 77.2307C280.985 74.2499 282.016 69.5999 283.195 66.8576C286.88 58.5114 285.406 46.3499 280.69 45.6345C278.479 45.2768 278.331 46.2307 279.068 53.623Z" fill="white"/>
<path d="M141.699 58.1537C142.436 63.3999 142.141 66.2614 140.225 69.8383C135.803 78.3037 138.309 90.7037 144.794 92.7306C148.627 93.9229 148.774 92.2537 145.384 85.696L142.141 79.3768L145.237 72.2229C147.005 68.2883 148.332 63.5191 148.332 61.4922C148.332 57.3191 145.531 52.3114 142.731 51.596C141.257 51.2383 140.962 52.6691 141.699 58.1537Z" fill="white"/>
<path d="M301.03 58.3922C301.767 63.7576 301.325 66.7383 299.556 70.4345C296.313 76.9922 296.608 84.5037 300.145 89.1537C305.009 95.7114 310.021 93.8037 305.304 87.1268C302.504 83.1922 302.504 76.1576 305.304 70.7922C309.136 63.3999 307.22 53.0268 301.914 51.596C300.44 51.2383 300.145 52.6691 301.03 58.3922Z" fill="white"/>
<path d="M200.951 65.7845C196.971 68.2883 194.023 74.7268 188.865 91.6575C186.949 98.2152 186.654 100.719 187.98 101.792C189.159 102.746 188.275 104.296 184.295 107.515C181.2 110.138 178.989 113.119 178.989 114.788C178.989 118.961 186.801 149.365 188.57 152.108C190.633 155.446 192.549 156.281 198.74 156.281C203.014 156.281 204.783 155.565 206.699 153.181C209.057 150.319 209.057 149.365 206.699 136.846C205.373 129.454 204.341 122.896 204.341 122.181C204.341 121.465 208.32 119.677 213.184 118.246L222.175 115.623L231.608 118.127C236.914 119.558 241.189 121.108 241.189 121.465C241.189 121.942 240.157 127.069 238.978 133.031C236.03 147.458 236.177 151.869 239.42 154.254C243.105 156.996 251.948 156.877 255.044 154.015C257.402 151.869 266.245 121.346 266.245 115.146C266.245 113.596 264.182 110.377 261.824 108.111C259.171 105.727 257.991 103.7 258.876 103.223C261.234 102.031 260.645 96.4268 256.518 83.9075C249.738 63.2806 249.738 63.3998 224.091 63.2806C206.699 63.2806 204.341 63.5191 200.951 65.7845ZM243.252 69.4806C246.053 71.5075 248.116 75.5614 251.359 85.8152C253.864 93.3268 255.486 99.8845 255.044 100.361C254.749 100.958 250.622 102.269 246.2 103.461C238.241 105.488 237.799 105.488 235.883 103.223C232.935 100.004 233.23 99.2883 238.388 98.4537C240.894 97.9768 243.252 97.0229 243.547 96.1883C244.726 93.8037 238.831 82.9537 236.177 82.596C233.23 82.1191 233.23 84.3845 236.03 89.7499L238.094 93.9229L230.134 95.3537C223.944 96.546 220.849 96.546 216.28 95.3537C212.89 94.5191 210.236 93.6845 210.236 93.446C210.236 93.2076 211.268 91.0614 212.447 88.796C214.658 84.5037 214.363 82.3576 211.563 82.3576C209.794 82.3576 202.572 95.2345 203.604 96.6652C204.046 97.1422 209.057 98.5729 214.953 99.646C220.849 100.838 226.892 102.269 228.366 102.865C231.314 104.058 231.756 107.277 228.808 108.111C226.007 108.946 196.824 102.746 194.171 100.719C192.402 99.4076 192.844 97.1422 196.676 85.0999C202.719 66.8575 202.719 66.8575 223.649 66.8575C238.094 66.8575 239.862 67.096 243.252 69.4806ZM208.468 109.304C213.626 110.377 217.311 111.688 216.574 112.165C215.985 112.642 211.858 114.073 207.436 115.265C203.162 116.458 199.182 118.246 198.74 119.2C198.298 120.034 199.182 127.188 200.656 134.938C202.867 146.504 203.014 149.365 201.393 150.915C199.182 153.181 196.382 153.181 194.171 151.034C193.286 150.2 190.486 141.496 188.128 131.838L183.706 114.073L188.422 110.138C191.812 107.277 194.171 106.323 196.234 106.8C197.856 107.158 203.309 108.35 208.468 109.304ZM256.96 110.019C261.234 113.238 261.087 115.027 256.223 134.7C252.096 150.915 250.18 153.896 245.021 152.346C241.926 151.392 241.926 146.265 245.021 131.719C246.347 125.519 247.084 119.796 246.642 118.961C246.347 118.246 242.515 116.577 238.241 115.384C234.114 114.192 231.019 112.761 231.608 112.404C233.23 110.973 246.053 107.634 249.885 107.515C251.948 107.396 255.044 108.588 256.96 110.019Z" fill="white"/>
<path d="M135.361 112.881C135.951 115.385 138.604 115.623 139.193 113C139.488 111.808 138.751 110.973 137.277 110.973C135.803 110.973 135.067 111.688 135.361 112.881Z" fill="white"/>
<path d="M146.416 111.688C144.499 113.238 145.384 114.55 148.479 114.55C150.1 114.55 151.28 113.954 150.985 113.119C150.248 111.45 147.742 110.615 146.416 111.688Z" fill="white"/>
<path d="M157.47 112.881C158.06 115.385 160.713 115.623 161.302 113C161.597 111.808 160.86 110.973 159.386 110.973C157.912 110.973 157.175 111.688 157.47 112.881Z" fill="white"/>
<path d="M168.082 112.284C167.64 113 167.788 114.073 168.377 114.55C170.146 115.981 173.978 113.954 172.799 112.284C171.472 110.615 169.409 110.615 168.082 112.284Z" fill="white"/>
<path d="M272.141 112.642C272.141 113.596 272.731 114.669 273.468 115.027C275.089 115.861 278.332 112.881 277.005 111.808C275.236 110.377 272.141 110.973 272.141 112.642Z" fill="white"/>
<path d="M283.343 112.046C282.311 113.358 285.996 115.981 287.322 114.908C287.912 114.55 288.354 113.477 288.354 112.523C288.354 110.735 284.522 110.377 283.343 112.046Z" fill="white"/>
<path d="M294.25 112.642C294.25 113.596 294.839 114.669 295.576 115.027C297.198 115.861 300.44 112.881 299.114 111.808C297.345 110.377 294.25 110.973 294.25 112.642Z" fill="white"/>
<path d="M305.157 112.284C303.978 113.954 307.81 115.981 309.579 114.55C310.905 113.477 309.579 110.973 307.515 110.973C306.778 110.973 305.746 111.569 305.157 112.284Z" fill="white"/>
<path d="M230.282 177.623C228.955 179.292 235.883 183.704 238.093 182.631C239.715 181.796 239.42 181.081 236.914 179.054C233.672 176.431 231.461 175.954 230.282 177.623Z" fill="white"/>
<path d="M356.449 179.173C355.417 180.008 354.68 181.319 354.68 182.034C354.68 184.061 343.773 191.096 335.519 194.434C327.413 197.773 327.855 197.296 329.034 199.681C330.213 202.184 332.129 202.065 338.909 199.204C342.005 197.892 345.1 197.058 345.837 197.415C346.721 197.892 347.311 202.9 347.311 208.861C347.311 218.877 347.458 219.473 350.406 219.473C353.354 219.473 353.501 218.996 353.059 206L352.617 192.646L357.333 188.831C362.05 185.134 362.787 183.227 361.166 179.65C360.134 177.384 358.807 177.265 356.449 179.173Z" fill="white"/>
<path d="M225.565 180.246C224.386 181.915 230.134 186.565 232.198 185.611C234.261 184.538 232.935 182.154 229.397 180.365C227.481 179.411 226.302 179.411 225.565 180.246Z" fill="white"/>
<path d="M206.552 186.208C205.962 187.519 205.815 188.831 206.109 188.95C214.658 193.958 215.837 194.435 217.606 192.646C219.817 190.5 217.753 187.996 211.563 185.373C207.731 183.823 207.436 183.942 206.552 186.208Z" fill="white"/>
<path d="M239.567 188.592C235.44 196.938 218.048 211.127 212.153 211.127C209.205 211.127 209.942 206.596 213.184 205.165C214.806 204.45 216.132 202.9 216.132 201.708C216.132 198.727 203.162 195.746 201.246 198.25C199.182 200.873 199.772 202.781 202.719 202.781C205.078 202.781 205.52 203.615 205.373 208.742C205.225 216.492 206.994 217.923 214.363 216.135C225.418 213.392 238.83 202.9 246.347 190.977C248.411 187.638 248.411 186.804 246.79 185.969C243.4 184.181 241.631 184.777 239.567 188.592Z" fill="white"/>
<path d="M176.189 188.711C173.389 192.885 160.123 203.854 153.049 207.788C147.89 210.65 146.269 211.008 144.5 209.815C142.731 208.623 141.847 208.742 139.931 210.292C137.72 212.081 137.72 212.438 140.225 214.704C141.699 216.015 144.058 217.088 145.384 217.088C152.606 217.088 175.894 200.754 181.79 191.692C183.559 188.711 183.706 187.996 181.937 187.161C178.99 185.611 178.105 185.85 176.189 188.711Z" fill="white"/>
<path d="M96.0077 189.069C90.4068 189.904 84.2163 190.381 82.4476 190.023C79.6472 189.546 79.0576 189.904 79.0576 192.527C79.0576 195.388 79.4998 195.627 85.6902 195.627H92.3229V200.873V206.238L83.9215 206.954C73.0145 207.907 71.688 208.265 71.688 210.411C71.688 213.273 76.1097 213.511 93.0598 211.723C102.051 210.769 111.779 209.934 114.874 209.934C119.738 209.934 120.327 209.577 120.327 206.834V203.734L110.01 204.569L99.6925 205.404V200.038C99.6925 194.315 101.019 193.242 108.094 193.242C110.894 193.242 111.631 192.765 110.894 191.334C110.452 190.261 110.01 188.95 110.01 188.354C110.01 187.042 109.273 187.161 96.0077 189.069Z" fill="white"/>
<path d="M141.11 190.5C140.078 192.169 140.962 193.242 145.384 195.865C150.69 198.846 151.132 198.965 153.343 196.938C155.554 194.911 155.407 194.554 150.1 191.573C143.468 187.877 143.026 187.877 141.11 190.5Z" fill="white"/>
<path d="M283.195 195.508C276.71 195.985 274.352 196.7 274.352 198.011C274.352 199.442 276.268 199.8 283.638 199.561C291.597 199.442 292.923 199.681 292.481 201.35C292.186 202.9 290.123 203.496 284.375 203.735C279.363 203.973 276.563 204.688 275.973 205.881C274.794 208.265 278.332 209.219 285.406 208.385C290.565 207.908 291.302 208.146 291.302 210.054C291.302 212.319 287.765 213.035 278.479 212.558C275.973 212.558 275.089 213.154 275.089 214.823C275.089 216.85 276.121 217.088 286.585 217.088H297.935L298.229 205.761C298.524 192.885 300.293 194.196 283.195 195.508Z" fill="white"/>
<path d="M163.808 230.919C161.597 232.231 161.45 232.946 162.776 234.019C163.808 234.854 164.545 236.642 164.545 238.192C164.545 240.458 163.808 240.934 160.271 240.934C156.881 240.934 155.701 240.219 154.375 237.238C153.048 234.138 152.459 233.781 149.806 234.973C147.447 235.927 147.005 237 147.742 239.384C148.774 242.484 148.774 242.484 141.994 241.769C136.688 241.173 135.214 241.411 134.477 242.961C133.003 245.942 135.951 247.492 143.173 247.134L149.806 246.896V251.188C149.806 254.646 150.248 255.361 152.164 254.765C153.491 254.408 155.112 254.05 155.996 254.05C156.733 254.05 157.028 252.619 156.438 250.592C155.701 247.611 155.996 247.134 159.534 246.419C161.597 245.942 163.808 245.823 164.103 246.181C164.545 246.538 164.103 249.4 163.071 252.619C161.302 258.7 155.112 265.258 149.658 266.569C146.416 267.404 146.268 271.934 149.216 272.769C151.722 273.484 163.218 265.854 166.461 261.561C167.935 259.415 169.704 255.123 170.146 252.023C171.178 246.419 171.325 246.3 177.073 245.704C181.79 245.227 183.116 244.511 183.411 242.365C183.853 239.981 183.264 239.742 178.105 239.742C172.651 239.742 172.209 239.504 170.588 234.973C168.524 229.25 167.493 228.773 163.808 230.919Z" fill="white"/>
<path d="M220.849 230.442C219.964 231.158 219.08 233.065 219.08 234.615C219.08 238.073 215.248 239.385 211.416 237.477C207.141 235.331 204.046 237.715 205.962 241.65C206.699 243.319 207.289 246.538 207.289 248.804C207.289 252.381 207.731 252.858 211.121 252.858C214.806 252.858 214.953 252.619 214.069 248.088L213.184 243.319H222.765C228.071 243.319 232.345 243.558 232.345 243.915C232.345 245.227 226.007 254.527 223.059 257.865C221.438 259.654 217.459 262.635 214.363 264.304C208.32 267.762 208.173 268.119 210.089 270.504C211.121 271.935 212.005 271.815 215.69 270.385C228.071 265.138 243.4 244.154 238.241 239.146C237.209 238.192 234.114 237.358 231.461 237.358C227.629 237.358 226.45 236.881 226.45 235.212C226.45 234.019 225.565 232.112 224.533 231.038C223.059 229.369 222.323 229.25 220.849 230.442Z" fill="white"/>
<path d="M284.375 230.919C283.195 231.396 282.901 233.423 283.49 237.358L284.375 243.081L278.331 243.915C274.941 244.392 270.962 244.392 269.341 243.915C267.277 243.438 265.951 243.915 264.919 245.465C262.708 248.804 264.034 249.281 274.647 249.281C283.048 249.281 284.08 249.519 283.343 251.308C282.901 252.5 282.164 254.885 281.574 256.792C281.132 258.581 278.037 261.8 274.941 264.065C269.93 267.523 269.488 268.238 271.257 270.146C273.173 272.292 273.32 272.292 277.595 269.788C283.638 266.331 287.175 261.8 289.091 254.646L290.86 248.685L297.935 248.565C303.83 248.446 305.304 248.088 306.189 245.942C307.368 243.438 307.073 243.319 299.409 243.319C291.449 243.319 291.302 243.319 291.302 239.742C291.302 236.165 288.502 230.085 287.028 230.323C286.585 230.323 285.406 230.681 284.375 230.919Z" fill="white"/>
</svg>
